<?xml version="1.0" encoding="utf-8"?>
<!-- Generator: Adobe Illustrator 16.0.0, SVG Export Plug-In . SVG Version: 6.00 Build 0)  -->
<!DOCTYPE svg PUBLIC "-//W3C//DTD SVG 1.1//EN" "http://www.w3.org/Graphics/SVG/1.1/DTD/svg11.dtd" [
	<!ENTITY ns_extend "http://ns.adobe.com/Extensibility/1.0/">
	<!ENTITY ns_ai "http://ns.adobe.com/AdobeIllustrator/10.0/">
	<!ENTITY ns_graphs "http://ns.adobe.com/Graphs/1.0/">
	<!ENTITY ns_vars "http://ns.adobe.com/Variables/1.0/">
	<!ENTITY ns_imrep "http://ns.adobe.com/ImageReplacement/1.0/">
	<!ENTITY ns_sfw "http://ns.adobe.com/SaveForWeb/1.0/">
	<!ENTITY ns_custom "http://ns.adobe.com/GenericCustomNamespace/1.0/">
	<!ENTITY ns_adobe_xpath "http://ns.adobe.com/XPath/1.0/">
]>
<svg version="1.1" id="Layer_1" xmlns:x="&ns_extend;" xmlns:i="&ns_ai;" xmlns:graph="&ns_graphs;"
	 xmlns="http://www.w3.org/2000/svg" xmlns:xlink="http://www.w3.org/1999/xlink" x="0px" y="0px" width="512px" height="512px"
	 viewBox="0 0 512 512" enable-background="new 0 0 512 512" xml:space="preserve">
<metadata>
	<sfw  xmlns="&ns_sfw;">
		<slices></slices>
		<sliceSourceBounds  width="512" height="512.001" x="223.5" y="24.499" bottomLeftOrigin="true"></sliceSourceBounds>
	</sfw>
</metadata>
<g>
	<g>
		<path fill="#FF395D" d="M456.951,269.361c-4.427,0-8.019,3.589-8.019,8.017v218.588H63.064v-64.668
			c0-4.427-3.589-8.017-8.017-8.017c-4.427,0-8.017,3.589-8.017,8.017v72.687c0,4.427,3.589,8.017,8.017,8.017H456.95
			c4.427,0,8.017-3.589,8.017-8.017V277.378C464.968,272.95,461.378,269.361,456.951,269.361z"/>
	</g>
</g>
<g>
	<g>
		<path fill="#FF395D" d="M508.827,189.755L260.846,1.63c-2.865-2.173-6.827-2.173-9.688,0l-98.304,74.575V50.238h9.086
			c4.427,0,8.017-3.589,8.017-8.017V8.017c0-4.427-3.589-8.017-8.017-8.017H42.221c-4.427,0-8.017,3.589-8.017,8.017v34.205
			c0,4.427,3.589,8.017,8.017,8.017h9.086v103L3.172,189.755c-2.743,2.08-3.851,5.68-2.753,8.942
			c1.098,3.263,4.156,5.461,7.598,5.461h39.015v184.384c0,4.427,3.589,8.017,8.017,8.017c4.427,0,8.017-3.589,8.017-8.017v-192.4
			c0-4.427-3.589-8.017-8.017-8.017h-23.2l224.15-170.046l224.152,170.046h-23.2c-4.427,0-8.019,3.589-8.019,8.017v38.48
			c0,4.427,3.591,8.017,8.019,8.017c4.427,0,8.017-3.589,8.017-8.017v-30.463h39.017c3.441,0,6.501-2.198,7.598-5.461
			C512.679,195.435,511.57,191.835,508.827,189.755z M50.238,34.205V16.034H153.92v18.171H50.238z M136.818,88.368L67.34,141.075
			V50.238h69.478V88.368z"/>
	</g>
</g>
<g>
	<g>
		<path fill="#FF395D" d="M429.598,441.014l-59.856-59.856c-7.138-7.14-18.245-9.044-27.359-4.687l-39.621-39.62
			c17.548-21.876,28.062-49.622,28.062-79.782c0-28.833-9.375-56.046-27.115-78.696c-2.73-3.486-7.77-4.098-11.254-1.368
			c-3.486,2.73-4.098,7.769-1.368,11.254c15.508,19.801,23.706,43.596,23.706,68.813c0,61.592-50.107,111.697-111.699,111.697
			S91.39,318.66,91.39,257.068c0-61.59,50.109-111.698,111.699-111.698c20.248,0,40.077,5.472,57.345,15.822
			c3.797,2.277,8.721,1.042,10.998-2.755c2.276-3.797,1.043-8.721-2.756-10.997c-19.756-11.843-42.436-18.104-65.587-18.104
			c-70.432,0-127.733,57.3-127.733,127.732c0,70.434,57.301,127.731,127.733,127.731c34.509,0,65.86-13.762,88.869-36.078
			l39.094,39.096c-4.252,8.936-2.711,19.964,4.677,27.351l59.857,59.858c9.27,9.271,24.742,9.271,34.012,0
			C438.975,465.649,438.975,450.39,429.598,441.014z M418.686,463.23c-2.995,3.503-8.502,3.719-11.762,0.459l-59.857-59.858
			c-2.916-2.916-3.106-7.743-0.424-10.878c2.996-3.503,8.5-3.719,11.762-0.459l59.857,59.856
			C421.177,455.268,421.369,460.095,418.686,463.23z"/>
	</g>
</g>
<g>
	<g>
		<path fill="#FF395D" d="M203.089,163.541c-51.572,0-93.528,41.956-93.528,93.527s41.957,93.527,93.528,93.527
			c51.571,0,93.528-41.956,93.528-93.527S254.661,163.541,203.089,163.541z M203.089,334.563c-42.731,0-77.495-34.764-77.495-77.494
			s34.765-77.494,77.495-77.494s77.495,34.764,77.495,77.494S245.82,334.563,203.089,334.563z"/>
	</g>
</g>
<g>
	<g>
		<path fill="#FF395D" d="M270.188,253.628c-10.504-22.108-39.35-38.78-67.099-38.78s-56.594,16.673-67.099,38.781
			c-1.034,2.177-1.034,4.704,0,6.882c10.505,22.108,39.35,38.779,67.099,38.779s56.595-16.673,67.099-38.78
			C271.221,258.332,271.221,255.805,270.188,253.628z M175.874,276.859c-9.973-4.726-18.523-11.717-23.521-19.791
			c4.999-8.073,13.549-15.065,23.521-19.792c-4.054,5.559-6.454,12.398-6.454,19.792C169.42,264.461,171.821,271.3,175.874,276.859z
			 M203.089,274.705c-9.725,0-17.637-7.912-17.637-17.637c0-9.727,7.912-17.637,17.637-17.637c9.725,0,17.637,7.912,17.637,17.637
			C220.726,266.793,212.814,274.705,203.089,274.705z M230.305,276.859c4.054-5.561,6.454-12.398,6.454-19.791
			c0-7.395-2.401-14.231-6.454-19.792c9.973,4.726,18.522,11.717,23.521,19.792C248.827,265.143,240.277,272.134,230.305,276.859z"
			/>
	</g>
</g>
</svg>
