<?xml version="1.0" encoding="utf-8"?>
<!-- Generator: Adobe Illustrator 16.0.0, SVG Export Plug-In . SVG Version: 6.00 Build 0)  -->
<!DOCTYPE svg PUBLIC "-//W3C//DTD SVG 1.1//EN" "http://www.w3.org/Graphics/SVG/1.1/DTD/svg11.dtd" [
	<!ENTITY ns_extend "http://ns.adobe.com/Extensibility/1.0/">
	<!ENTITY ns_ai "http://ns.adobe.com/AdobeIllustrator/10.0/">
	<!ENTITY ns_graphs "http://ns.adobe.com/Graphs/1.0/">
	<!ENTITY ns_vars "http://ns.adobe.com/Variables/1.0/">
	<!ENTITY ns_imrep "http://ns.adobe.com/ImageReplacement/1.0/">
	<!ENTITY ns_sfw "http://ns.adobe.com/SaveForWeb/1.0/">
	<!ENTITY ns_custom "http://ns.adobe.com/GenericCustomNamespace/1.0/">
	<!ENTITY ns_adobe_xpath "http://ns.adobe.com/XPath/1.0/">
]>
<svg version="1.1" id="Capa_1" xmlns:x="&ns_extend;" xmlns:i="&ns_ai;" xmlns:graph="&ns_graphs;"
	 xmlns="http://www.w3.org/2000/svg" xmlns:xlink="http://www.w3.org/1999/xlink" x="0px" y="0px" width="512px" height="512px"
	 viewBox="0 0 512 512" enable-background="new 0 0 512 512" xml:space="preserve">
<metadata>
	<sfw  xmlns="&ns_sfw;">
		<slices></slices>
		<sliceSourceBounds  width="511.996" height="486.875" x="223.5" y="37.063" bottomLeftOrigin="true"></sliceSourceBounds>
	</sfw>
</metadata>
<g>
	<g>
		<path fill="#FF395D" d="M171.076,415.28h-95.25c-18.198,0-33.263-14.306-33.263-32.503V87.516c0-18.197,15.065-32.39,33.263-32.39
			h230.528c18.197,0,33.053,14.193,33.053,32.39v247.418l42.58-50.62V55.9c0-23.93-18.925-43.338-42.822-43.338H41.32
			C18.343,12.563,0,31.196,0,54.156v361.398c0,23.93,19.134,43.403,43.096,43.403h167.249l-19.764-17.164
			C181.926,434.285,175.419,425.098,171.076,415.28z"/>
		<path fill="#FF395D" d="M288.625,109.702H97.43c-11.755,0-21.217,9.542-21.217,21.281c0,11.723,9.479,21.266,21.217,21.266
			h191.178c11.755,0,21.185-9.543,21.185-21.266C309.826,119.261,300.363,109.702,288.625,109.702z"/>
		<path fill="#FF395D" d="M288.625,180.635H97.43c-11.755,0-21.217,9.526-21.217,21.281c0,11.69,9.479,21.282,21.217,21.282h191.178
			c11.755,0,21.185-9.591,21.185-21.282C309.826,190.161,300.363,180.635,288.625,180.635z"/>
		<path fill="#FF395D" d="M288.625,251.584H97.43c-11.755,0-21.217,9.01-21.217,20.765c0,11.706,9.479,20.7,21.217,20.7h191.178
			c11.755,0,21.185-9.042,21.185-20.7C309.826,260.594,300.363,251.584,288.625,251.584z"/>
		<path fill="#FF395D" d="M76.197,339.987c0,11.739,9.479,20.717,21.217,20.717h71.336c2.987-7.638,7.573-16.502,13.838-23.881
			c6.588-7.638,14.354-13.24,22.799-17.633H97.43C85.675,319.239,76.197,328.281,76.197,339.987z"/>
		<path fill="#FF395D" d="M288.625,319.239h-15.953c5.231,2.212,10.221,5.909,14.79,9.865l21.185,18.133
			c0.808-2.18,1.228-4.521,1.228-7.056C309.826,328.523,300.363,319.239,288.625,319.239z"/>
		<path fill="#FF395D" d="M498.905,262.37c-15.582-13.37-39.075-11.464-52.413,4.198L324.357,409.742l-61.051-52.445
			c-15.63-13.337-39.092-11.577-52.445,4.005c-13.386,15.614-11.577,39.043,4.005,52.412l89.341,76.73
			c6.813,5.78,15.355,8.993,24.22,8.993c1.001,0,1.921-0.032,2.938-0.129c9.801-0.759,18.988-5.426,25.383-12.934l146.388-171.593
			C516.408,299.168,514.584,275.739,498.905,262.37z"/>
	</g>
</g>
</svg>
