<?xml version="1.0" encoding="utf-8"?>
<!-- Generator: Adobe Illustrator 16.0.0, SVG Export Plug-In . SVG Version: 6.00 Build 0)  -->
<!DOCTYPE svg PUBLIC "-//W3C//DTD SVG 1.1//EN" "http://www.w3.org/Graphics/SVG/1.1/DTD/svg11.dtd" [
	<!ENTITY ns_extend "http://ns.adobe.com/Extensibility/1.0/">
	<!ENTITY ns_ai "http://ns.adobe.com/AdobeIllustrator/10.0/">
	<!ENTITY ns_graphs "http://ns.adobe.com/Graphs/1.0/">
	<!ENTITY ns_vars "http://ns.adobe.com/Variables/1.0/">
	<!ENTITY ns_imrep "http://ns.adobe.com/ImageReplacement/1.0/">
	<!ENTITY ns_sfw "http://ns.adobe.com/SaveForWeb/1.0/">
	<!ENTITY ns_custom "http://ns.adobe.com/GenericCustomNamespace/1.0/">
	<!ENTITY ns_adobe_xpath "http://ns.adobe.com/XPath/1.0/">
]>
<svg version="1.1" id="Layer_1" xmlns:x="&ns_extend;" xmlns:i="&ns_ai;" xmlns:graph="&ns_graphs;"
	 xmlns="http://www.w3.org/2000/svg" xmlns:xlink="http://www.w3.org/1999/xlink" x="0px" y="0px" width="512px" height="512px"
	 viewBox="0 0 512 512" enable-background="new 0 0 512 512" xml:space="preserve">
<metadata>
	<sfw  xmlns="&ns_sfw;">
		<slices></slices>
		<sliceSourceBounds  width="511.999" height="354.997" x="223.5" y="103.002" bottomLeftOrigin="true"></sliceSourceBounds>
	</sfw>
</metadata>
<g>
	<g>
		<circle fill="#FFFFFF" cx="80.161" cy="147.209" r="17.177"/>
	</g>
</g>
<g>
	<g>
		<circle fill="#FFFFFF" cx="137.418" cy="147.209" r="17.177"/>
	</g>
</g>
<g>
	<g>
		<circle fill="#FFFFFF" cx="194.676" cy="147.209" r="17.177"/>
	</g>
</g>
<g>
	<g>
		<rect x="85.886" y="255.998" fill="#FF395D" width="114.515" height="34.355"/>
	</g>
</g>
<g>
	<g>
		<rect x="85.886" y="324.707" fill="#FF395D" width="114.515" height="34.355"/>
	</g>
</g>
<g>
	<g>
		<path fill="#FF395D" d="M494.07,182.673c-12.292-13.095-28.951-20.463-46.908-20.747c-0.187-0.002-0.369,0.007-0.553,0.005v-83.43
			H0v354.997h446.609V320.195l37.36-37.362l8.653-8.653C517.887,248.917,518.523,208.722,494.07,182.673z M34.355,112.855h377.9
			v58.429c-4.536,2.738-8.779,6.041-12.632,9.895l-0.385,0.385H34.355V112.855z M240.482,399.143H34.355V215.919h330.528
			l-40.08,40.08h-78.594v34.354h44.359l-50.084,50.148v58.64L240.482,399.143L240.482,399.143z M412.255,399.143h-44.593
			l44.593-44.594V399.143z M367.75,350.47l-48.674,48.674h-44.24v-44.423l118.303-118.457l43.003,45.813L367.75,350.47z
			 M468.33,249.889l-7.882,7.882l-43.014-45.821l6.479-6.478c6.064-6.065,14.109-9.293,22.705-9.196
			c8.576,0.136,16.533,3.654,22.402,9.909C480.7,218.626,480.396,237.822,468.33,249.889z"/>
	</g>
</g>
</svg>
