<?xml version="1.0" encoding="utf-8"?>
<!-- Generator: Adobe Illustrator 16.0.0, SVG Export Plug-In . SVG Version: 6.00 Build 0)  -->
<!DOCTYPE svg PUBLIC "-//W3C//DTD SVG 1.1//EN" "http://www.w3.org/Graphics/SVG/1.1/DTD/svg11.dtd" [
	<!ENTITY ns_extend "http://ns.adobe.com/Extensibility/1.0/">
	<!ENTITY ns_ai "http://ns.adobe.com/AdobeIllustrator/10.0/">
	<!ENTITY ns_graphs "http://ns.adobe.com/Graphs/1.0/">
	<!ENTITY ns_vars "http://ns.adobe.com/Variables/1.0/">
	<!ENTITY ns_imrep "http://ns.adobe.com/ImageReplacement/1.0/">
	<!ENTITY ns_sfw "http://ns.adobe.com/SaveForWeb/1.0/">
	<!ENTITY ns_custom "http://ns.adobe.com/GenericCustomNamespace/1.0/">
	<!ENTITY ns_adobe_xpath "http://ns.adobe.com/XPath/1.0/">
]>
<svg version="1.1" id="Capa_1" xmlns:x="&ns_extend;" xmlns:i="&ns_ai;" xmlns:graph="&ns_graphs;"
	 xmlns="http://www.w3.org/2000/svg" xmlns:xlink="http://www.w3.org/1999/xlink" x="0px" y="0px" width="512px" height="512px"
	 viewBox="0 0 512 512" enable-background="new 0 0 512 512" xml:space="preserve">
<metadata>
	<sfw  xmlns="&ns_sfw;">
		<slices></slices>
		<sliceSourceBounds  width="512" height="511.618" x="223.5" y="24.69" bottomLeftOrigin="true"></sliceSourceBounds>
	</sfw>
</metadata>
<g>
	<g>
		<path fill="#FF395D" d="M510.29,107.332c1.716-2.287,2.176-5.282,1.221-7.979c-0.956-2.697-3.2-4.728-5.974-5.427l-28.595-7.151
			c-2.016-4.096-4.378-8.124-7.074-12.015l7.825-39.142c0.613-3.072-0.504-6.229-2.91-8.235c-2.406-2.006-5.717-2.526-8.627-1.365
			L428.388,41.13c-2.893-1.211-5.785-2.253-8.636-3.115l-3.797-1.894L400.16,4.531c-2.895-5.786-12.373-5.786-15.268,0
			l-15.795,31.59l-3.789,1.894c-2.851,0.871-5.742,1.912-8.636,3.115l-37.769-15.112c-2.894-1.144-6.221-0.648-8.627,1.365
			c-2.406,1.997-3.524,5.163-2.909,8.235l7.823,39.142c-2.627,3.797-4.939,7.714-6.911,11.699l-36.89,7.381
			c-3.08,0.615-5.58,2.884-6.494,5.888c-0.912,3.012-0.094,6.28,2.134,8.508l31.634,31.641v11.52l-16.171,32.333
			c-1.322,2.646-1.179,5.786,0.375,8.303c1.563,2.509,4.301,4.045,7.262,4.045h38.042c2.159,2.014,4.489,3.985,7.059,5.965
			l6.101,6.101v30.601c0,3.234,1.826,6.187,4.72,7.637c2.893,1.434,6.348,1.126,8.934-0.811l29.015-21.76v66.568
			c-43.06,4.293-76.8,40.729-76.8,84.897c0,44.169,33.74,80.604,76.8,84.896v34.568H119.466v-17.066h8.533
			c1.843,0,3.644-0.597,5.12-1.706l34.133-25.601c2.15-1.604,3.413-4.14,3.413-6.826v-25.6V383.81v-32.384l24.823-57.932
			l20.13-43.981c0.119-0.265,0.23-0.538,0.324-0.811c3.934-11.605,5.922-23.569,5.922-35.558
			c0-61.167-49.766-110.933-110.933-110.933S0,151.978,0,213.145c0,11.989,1.988,23.953,5.922,35.558
			c0.094,0.273,0.205,0.546,0.325,0.811l20.044,43.792L51.2,351.426v32.384v34.135v25.6c0,2.688,1.263,5.214,3.413,6.826
			l34.133,25.601c1.476,1.108,3.277,1.706,5.12,1.706h8.533v25.601c0,4.711,3.823,8.532,8.533,8.532h281.599
			c4.71,0,8.533-3.821,8.533-8.532v-43.103c43.059-4.292,76.799-40.729,76.799-84.896s-33.74-80.604-76.799-84.897v-66.568
			l29.013,21.76c1.511,1.126,3.312,1.707,5.12,1.707c1.297,0,2.61-0.299,3.813-0.896c2.894-1.451,4.72-4.403,4.72-7.637v-30.601
			l6.102-6.101c2.568-1.98,4.898-3.951,7.057-5.965h38.042c2.961,0,5.7-1.536,7.263-4.045c1.553-2.517,1.697-5.657,0.375-8.303
			l-16.172-32.333v-12.211L510.29,107.332z M153.599,409.41H68.266v-17.067h85.333V409.41z M153.599,375.276H68.266V358.21h25.6
			h34.133h25.6V375.276z M81.877,266.537c7.816,3.574,17.579,6.34,29.056,6.34c5.547,0,16.785-0.811,29.047-6.314l-18.645,74.581
			h-20.804L81.877,266.537z M41.89,286.395l-19.942-43.58c-3.243-9.711-4.881-19.686-4.881-29.67
			c0-51.754,42.112-93.866,93.866-93.866s93.866,42.112,93.866,93.866c0,9.984-1.639,19.959-4.881,29.679l-20.027,43.759
			l-23.381,54.562h-17.58l22.946-91.792c0.921-3.687-0.708-7.535-3.985-9.446c-3.285-1.912-7.432-1.425-10.18,1.194
			c-13.943,13.278-30.361,14.711-36.778,14.711c-19.26,0-32.136-10.291-36.778-14.711c-2.748-2.62-6.903-3.106-10.18-1.194
			c-3.277,1.911-4.907,5.76-3.985,9.446l22.946,91.792h-17.58L41.89,286.395z M96.716,460.609l-28.45-21.333v-12.801h85.333v12.801
			l-28.441,21.333H96.716z M460.797,375.276c0,37.641-30.626,68.267-68.266,68.267c-37.641,0-68.268-30.626-68.268-68.267
			s30.627-68.267,68.268-68.267C430.171,307.011,460.797,337.637,460.797,375.276z M470.227,157.226l10.896,21.786h-27.698
			c-2.296,0-4.489,0.921-6.093,2.551c-2.415,2.466-5.138,4.838-8.313,7.271c-0.308,0.23-0.589,0.478-0.861,0.751l-8.994,8.994
			c-1.604,1.596-2.5,3.771-2.5,6.033v17.067l-20.479-15.36c-1.477-1.109-3.276-1.707-5.119-1.707h-17.066
			c-1.845,0-3.646,0.598-5.121,1.707l-20.479,15.36v-17.067c0-2.261-0.896-4.437-2.5-6.033l-8.994-8.994
			c-0.266-0.273-0.555-0.521-0.862-0.751c-3.183-2.423-5.896-4.804-8.312-7.271c-1.604-1.63-3.797-2.551-6.094-2.551h-27.697
			l10.888-21.786c0.598-1.178,0.905-2.492,0.905-3.814v-17.066c0-2.261-0.896-4.438-2.502-6.033l-22.858-22.86l25.496-5.103
			c2.748-0.546,5.044-2.415,6.161-4.983c2.244-5.197,5.224-10.317,8.857-15.207c0.299-0.401,0.785-1.288,1.016-1.732
			c0.845-1.698,1.109-3.627,0.733-5.496l-5.444-27.212l26.472,10.59c2.185,0.862,4.616,0.811,6.75-0.179
			c3.522-1.622,7.048-2.961,10.47-3.959c0.486-0.145,0.956-0.333,1.417-0.555l6.997-3.499c1.646-0.828,2.995-2.168,3.814-3.814
			l9.42-18.876l9.43,18.867c0.828,1.647,2.168,2.995,3.814,3.814l6.996,3.499c0.452,0.222,0.923,0.41,1.417,0.555
			c3.423,1.007,6.938,2.338,10.471,3.959c2.134,0.99,4.558,1.041,6.75,0.179l26.471-10.59l-5.444,27.213
			c-0.376,1.86,0.119,4.267,0.965,5.956c0.223,0.444,0.485,0.871,0.776,1.263c3.645,4.906,6.63,10.052,8.893,15.292
			c1.049,2.44,3.183,4.258,5.76,4.898l20.087,5.026l-17.877,23.867c-1.109,1.477-1.707,3.277-1.707,5.12v17.066
			C469.33,154.734,469.638,156.048,470.227,157.226z"/>
	</g>
</g>
<g>
	<g>
		<path fill="#FF395D" d="M392.531,68.079c-32.939,0-59.733,26.794-59.733,59.733s26.794,59.733,59.733,59.733
			c32.938,0,59.731-26.794,59.731-59.733S425.47,68.079,392.531,68.079z M392.531,170.478c-23.526,0-42.667-19.14-42.667-42.667
			s19.141-42.667,42.667-42.667c23.525,0,42.666,19.14,42.666,42.667S416.058,170.478,392.531,170.478z"/>
	</g>
</g>
<g>
	<g>
		<path fill="#FF395D" d="M425.393,362.255c-1.562-2.509-4.301-4.045-7.262-4.045h-36.13l17.843-29.738l-14.635-8.78l-25.6,42.667
			c-1.588,2.637-1.621,5.922-0.111,8.593c1.52,2.671,4.361,4.326,7.434,4.326h37.394l-19.423,38.853l15.267,7.629l25.6-51.2
			C427.091,367.912,426.945,364.772,425.393,362.255z"/>
	</g>
</g>
<g>
	<g>
		<rect x="102.399" y="51.012" fill="#FF395D" width="17.066" height="34.133"/>
	</g>
</g>
<g>
	<g>
		
			<rect x="182.432" y="80.875" transform="matrix(0.7071 -0.7071 0.7071 0.7071 -4.4849 167.9881)" fill="#FF395D" width="36.206" height="17.066"/>
	</g>
</g>
<g>
	<g>
		
			<rect x="12.8" y="71.31" transform="matrix(0.7071 -0.7071 0.7071 0.7071 -56.9757 41.2736)" fill="#FF395D" width="17.067" height="36.206"/>
	</g>
</g>
</svg>
