<?xml version="1.0" encoding="utf-8"?>
<!-- Generator: Adobe Illustrator 16.0.0, SVG Export Plug-In . SVG Version: 6.00 Build 0)  -->
<!DOCTYPE svg PUBLIC "-//W3C//DTD SVG 1.1//EN" "http://www.w3.org/Graphics/SVG/1.1/DTD/svg11.dtd" [
	<!ENTITY ns_extend "http://ns.adobe.com/Extensibility/1.0/">
	<!ENTITY ns_ai "http://ns.adobe.com/AdobeIllustrator/10.0/">
	<!ENTITY ns_graphs "http://ns.adobe.com/Graphs/1.0/">
	<!ENTITY ns_vars "http://ns.adobe.com/Variables/1.0/">
	<!ENTITY ns_imrep "http://ns.adobe.com/ImageReplacement/1.0/">
	<!ENTITY ns_sfw "http://ns.adobe.com/SaveForWeb/1.0/">
	<!ENTITY ns_custom "http://ns.adobe.com/GenericCustomNamespace/1.0/">
	<!ENTITY ns_adobe_xpath "http://ns.adobe.com/XPath/1.0/">
]>
<svg version="1.1" id="Capa_1" xmlns:x="&ns_extend;" xmlns:i="&ns_ai;" xmlns:graph="&ns_graphs;"
	 xmlns="http://www.w3.org/2000/svg" xmlns:xlink="http://www.w3.org/1999/xlink" x="0px" y="0px" width="512px" height="512px"
	 viewBox="0 0 512 512" enable-background="new 0 0 512 512" xml:space="preserve">
<metadata>
	<sfw  xmlns="&ns_sfw;">
		<slices></slices>
		<sliceSourceBounds  width="511.991" height="512" x="223.505" y="24.5" bottomLeftOrigin="true"></sliceSourceBounds>
	</sfw>
</metadata>
<g>
	<g>
		<path fill="#FF395D" d="M376,121h-46.518c-1.948-9.558-5.762-18.428-10.979-26.294l32.959-32.959
			c5.859-5.859,5.859-15.352,0-21.211c-5.857-5.859-15.354-5.859-21.211,0l-32.959,32.959c-7.865-5.215-16.734-9.029-26.294-10.977
			V15c0-8.291-6.709-15-15-15s-15,6.709-15,15v47.518c-9.558,1.948-18.428,5.762-26.294,10.977l-32.959-32.959
			c-5.859-5.859-15.352-5.859-21.211,0c-5.859,5.859-5.859,15.352,0,21.211l32.959,32.959c-5.215,7.866-9.029,16.736-10.977,26.294
			H136c-8.291,0-15,6.709-15,15s6.709,15,15,15c152.882,0-45.104,0,240,0c8.291,0,15-6.709,15-15S384.291,121,376,121z"/>
	</g>
</g>
<g>
	<g>
		<path fill="#FF395D" d="M316,482h-15v-15h-90v15h-15c-8.291,0-15,6.709-15,15s6.709,15,15,15c25.272,0,94.311,0,120,0
			c8.291,0,15-6.709,15-15S324.291,482,316,482z"/>
	</g>
</g>
<g>
	<g>
		<polygon fill="#FF395D" points="328.872,181 271,181 271,241 336.874,241 		"/>
	</g>
</g>
<g>
	<g>
		<polygon fill="#FF395D" points="161.13,346 149.132,437 241,437 241,346 		"/>
	</g>
</g>
<g>
	<g>
		<polygon fill="#FF395D" points="171.13,271 165.132,316 241,316 241,271 		"/>
	</g>
</g>
<g>
	<g>
		<polygon fill="#FF395D" points="350.874,346 271,346 271,437 362.875,437 		"/>
	</g>
</g>
<g>
	<g>
		<polygon fill="#FF395D" points="183.13,181 175.13,241 241,241 241,181 		"/>
	</g>
</g>
<g>
	<g>
		<polygon fill="#FF395D" points="40.481,271 28.482,316 134.867,316 140.867,271 		"/>
	</g>
</g>
<g>
	<g>
		<path fill="#FF395D" d="M19.481,346L0.513,418.133c-1.201,4.512-0.249,9.316,2.593,13.008C5.948,434.833,10.341,437,15,437
			h103.869l11.999-91H19.481z"/>
	</g>
</g>
<g>
	<g>
		<path fill="#FF395D" d="M511.487,418.133L492.52,346H381.139l12,91H497c4.658,0,9.053-2.168,11.895-5.859
			C511.737,427.45,512.688,422.645,511.487,418.133z"/>
	</g>
</g>
<g>
	<g>
		<path fill="#FF395D" d="M76,181c-6.797,0-12.744,4.57-14.487,11.133L48.481,241h96.387l7.998-60H76z"/>
	</g>
</g>
<g>
	<g>
		<polygon fill="#FF395D" points="471.52,271 371.137,271 377.137,316 483.518,316 		"/>
	</g>
</g>
<g>
	<g>
		<path fill="#FF395D" d="M450.487,192.133C448.744,185.57,442.797,181,436,181h-76.864l8.003,60h96.38L450.487,192.133z"/>
	</g>
</g>
<g>
	<g>
		<polygon fill="#FF395D" points="340.872,271 271,271 271,316 346.872,316 		"/>
	</g>
</g>
</svg>
