<?xml version="1.0" encoding="utf-8"?>
<!-- Generator: Adobe Illustrator 16.0.0, SVG Export Plug-In . SVG Version: 6.00 Build 0)  -->
<!DOCTYPE svg PUBLIC "-//W3C//DTD SVG 1.1//EN" "http://www.w3.org/Graphics/SVG/1.1/DTD/svg11.dtd" [
	<!ENTITY ns_extend "http://ns.adobe.com/Extensibility/1.0/">
	<!ENTITY ns_ai "http://ns.adobe.com/AdobeIllustrator/10.0/">
	<!ENTITY ns_graphs "http://ns.adobe.com/Graphs/1.0/">
	<!ENTITY ns_vars "http://ns.adobe.com/Variables/1.0/">
	<!ENTITY ns_imrep "http://ns.adobe.com/ImageReplacement/1.0/">
	<!ENTITY ns_sfw "http://ns.adobe.com/SaveForWeb/1.0/">
	<!ENTITY ns_custom "http://ns.adobe.com/GenericCustomNamespace/1.0/">
	<!ENTITY ns_adobe_xpath "http://ns.adobe.com/XPath/1.0/">
]>
<svg version="1.1" id="Capa_1" xmlns:x="&ns_extend;" xmlns:i="&ns_ai;" xmlns:graph="&ns_graphs;"
	 xmlns="http://www.w3.org/2000/svg" xmlns:xlink="http://www.w3.org/1999/xlink" x="0px" y="0px" width="512px" height="512px"
	 viewBox="0 0 512 512" enable-background="new 0 0 512 512" xml:space="preserve">
<metadata>
	<sfw  xmlns="&ns_sfw;">
		<slices></slices>
		<sliceSourceBounds  width="489.304" height="512" x="234.849" y="24.5" bottomLeftOrigin="true"></sliceSourceBounds>
	</sfw>
</metadata>
<path fill="#FF395D" d="M500.648,237.72c0-3.451-1.447-6.505-3.96-9.156c2.037-2.079,3.431-4.413,3.963-7.001l-0.003-11.39
	c0-14.058-23.924-21.641-46.435-21.641c-22.512,0-46.437,7.583-46.437,21.643l0.012,11.148l0.027,0.24
	c0.534,2.581,1.911,4.906,3.936,6.978c-2.525,2.661-3.975,5.723-3.975,9.18l0.006,6.244h-79.564l-0.005-16.396
	c0-5.361-2.25-10.111-6.155-14.236c3.165-3.236,5.327-6.864,6.16-10.89l-0.005-17.714c0-9.08-6.431-16.417-16.442-21.902
	l39.183-39.183c8.333,7.441,25.349,11.296,41.427,11.296c21.082,0,43.827-6.618,46.438-19.272l-0.003-11.385
	c0-3.448-1.447-6.504-3.957-9.156c2.033-2.08,3.426-4.415,3.96-7.004l-0.003-11.385c0-3.451-1.447-6.504-3.957-9.158
	c2.033-2.08,3.426-4.414,3.96-7.002l-0.003-11.39c0-3.448-1.447-6.5-3.957-9.153c2.033-2.08,3.426-4.414,3.96-7.001l-0.003-11.39
	C438.817,7.585,414.89,0,392.381,0c-22.511,0-46.436,7.585-46.436,21.643l0.015,11.15l0.023,0.24
	c0.535,2.581,1.911,4.904,3.937,6.977c-2.525,2.659-3.975,5.723-3.975,9.176l0.015,11.153l0.023,0.237
	c0.535,2.582,1.911,4.908,3.937,6.981c-2.525,2.658-3.975,5.723-3.975,9.178l0.015,11.148l0.023,0.237
	c0.332,1.602,1.02,3.091,1.952,4.495l-61.475,61.477c-9.677-1.998-20.162-3.026-30.462-3.026c-10.3,0-20.781,1.028-30.457,3.026
	l-61.455-61.456c0.942-1.41,1.637-2.908,1.969-4.516l-0.003-11.385c0-3.451-1.447-6.504-3.96-9.158
	c2.037-2.08,3.431-4.414,3.963-7.002l-0.003-11.39c0-3.448-1.447-6.5-3.96-9.153c2.037-2.081,3.431-4.414,3.963-7.001l-0.003-11.39
	C166.052,7.585,142.125,0,119.619,0c-22.512,0-46.44,7.585-46.44,21.643l0.012,11.15l0.029,0.24
	c0.533,2.581,1.909,4.904,3.934,6.977c-2.525,2.659-3.975,5.723-3.975,9.176l0.012,11.153l0.029,0.237
	c0.533,2.582,1.909,4.908,3.934,6.981c-2.525,2.658-3.975,5.723-3.975,9.178l0.012,11.148l0.029,0.237
	c0.533,2.583,1.909,4.908,3.934,6.982c-2.525,2.657-3.975,5.72-3.975,9.178l0.012,11.153l0.029,0.232
	c2.607,12.652,25.315,19.272,46.399,19.272c16.067,0,33.09-3.851,41.44-11.282l39.167,39.168
	c-10.013,5.484-16.444,12.822-16.444,21.905l0.016,17.336l0.04,0.375c0.831,4.014,2.975,7.629,6.122,10.852
	c-3.922,4.138-6.178,8.9-6.178,14.274l0.016,16.396h-79.577l-0.001-6.243c0-3.451-1.447-6.505-3.957-9.156
	c2.033-2.079,3.425-4.413,3.96-7.001l-0.003-11.39c0-14.058-23.925-21.641-46.434-21.641c-22.512,0-46.437,7.583-46.437,21.643
	l0.015,11.148l0.025,0.24c0.534,2.581,1.911,4.906,3.935,6.978c-2.525,2.661-3.975,5.723-3.975,9.18l0.015,11.148l0.025,0.24
	c0.534,2.581,1.911,4.906,3.935,6.979c-2.525,2.656-3.975,5.723-3.975,9.177l0.015,11.148l0.025,0.239
	c0.534,2.582,1.911,4.908,3.935,6.979c-2.525,2.656-3.975,5.721-3.975,9.177l0.015,11.152l0.025,0.235
	c2.607,12.652,25.316,19.271,46.399,19.271c21.08,0,43.826-6.616,46.437-19.271l-0.003-11.388c0-3.448-1.447-6.503-3.957-9.155
	c2.034-2.078,3.425-4.414,3.96-7.002l-0.003-8.619h79.729c-0.099,0.779-0.167,1.568-0.167,2.375l0.016,17.34l0.04,0.37
	c0.831,4.017,2.975,7.634,6.122,10.856c-3.922,4.133-6.178,8.896-6.178,14.276l0.016,17.344l0.04,0.366
	c1.542,7.471,7.595,13.585,16.3,18.302l-39.168,39.169c-8.22-7.442-25.151-11.37-41.351-11.37c-22.512,0-46.438,7.583-46.438,21.643
	l0.012,11.148l0.029,0.24c0.533,2.579,1.909,4.906,3.934,6.976c-2.525,2.661-3.974,5.725-3.974,9.179l0.012,11.151l0.029,0.239
	c0.533,2.581,1.909,4.907,3.934,6.979c-2.525,2.658-3.974,5.722-3.974,9.178l0.012,11.148l0.029,0.24
	c0.533,2.58,1.909,4.906,3.934,6.978c-2.525,2.658-3.974,5.723-3.974,9.18l0.012,11.151l0.029,0.237
	C75.827,505.384,98.534,512,119.619,512c21.079,0,43.821-6.616,46.436-19.269l-0.003-11.389c0-3.449-1.447-6.504-3.96-9.156
	c2.037-2.078,3.431-4.413,3.963-7.001l-0.003-11.392c0-3.447-1.447-6.499-3.96-9.154c2.037-2.077,3.431-4.41,3.963-7l-0.003-11.391
	c0-2.461-0.749-4.715-2.082-6.771l61.541-61.542c9.721,1.986,20.226,2.996,30.486,2.996c10.258,0,20.767-1.007,30.493-2.995
	l61.537,61.537c-1.334,2.058-2.082,4.313-2.082,6.774l0.015,11.151l0.023,0.239c0.535,2.581,1.912,4.907,3.937,6.979
	c-2.525,2.658-3.975,5.722-3.975,9.178l0.015,11.148l0.023,0.24c0.535,2.581,1.912,4.906,3.937,6.978
	c-2.525,2.658-3.975,5.723-3.975,9.18l0.015,11.151l0.023,0.237c2.608,12.65,25.317,19.269,46.399,19.269
	s43.826-6.616,46.438-19.269l-0.003-11.389c0-3.449-1.446-6.504-3.957-9.156c2.034-2.078,3.427-4.413,3.96-7.001l-0.003-11.392
	c0-3.447-1.446-6.499-3.957-9.154c2.034-2.077,3.427-4.41,3.96-7l-0.003-11.391c0-3.448-1.446-6.503-3.957-9.155
	c2.034-2.08,3.427-4.413,3.96-6.999l-0.003-11.39c0-14.059-23.926-21.642-46.435-21.642c-16.199,0-33.13,3.928-41.352,11.367
	l-39.157-39.154c8.729-4.718,14.801-10.837,16.345-18.315l-0.005-17.709c0-5.364-2.25-10.115-6.155-14.241
	c3.165-3.231,5.327-6.862,6.16-10.891l-0.005-17.708c0-0.808-0.067-1.598-0.167-2.376h79.733l0.009,8.38l0.027,0.239
	c0.534,2.582,1.911,4.908,3.936,6.979c-2.525,2.656-3.975,5.721-3.975,9.176l0.012,11.153l0.027,0.235
	c2.608,12.652,25.316,19.271,46.399,19.271c21.08,0,43.824-6.616,46.437-19.271l-0.003-11.389c0-3.447-1.446-6.502-3.96-9.154
	c2.038-2.078,3.431-4.414,3.963-7.002l-0.003-11.389c0-3.451-1.446-6.502-3.96-9.155c2.038-2.08,3.431-4.413,3.963-7.002
	L500.648,237.72z M392.381,10.231c22.458,0,36.204,7.387,36.204,11.412c0,4.023-13.746,11.413-36.204,11.413
	s-36.206-7.39-36.206-11.413C356.176,17.619,369.924,10.231,392.381,10.231z M358.524,45.836c9.069,4.271,21.73,6.466,33.856,6.466
	c12.119,0,24.789-2.191,33.866-6.459c1.526,1.211,2.338,2.376,2.338,3.344c0,4.026-13.746,11.415-36.204,11.415
	s-36.206-7.389-36.206-11.415C356.176,48.216,356.991,47.048,358.524,45.836z M358.524,73.383c9.069,4.269,21.73,6.467,33.856,6.467
	c12.119,0,24.789-2.193,33.866-6.463c1.526,1.212,2.338,2.378,2.338,3.35c0,4.022-13.746,11.412-36.204,11.412
	s-36.206-7.389-36.206-11.412C356.176,75.764,356.991,74.593,358.524,73.383z M358.524,100.928c9.069,4.27,21.73,6.466,33.856,6.466
	c12.119,0,24.789-2.194,33.866-6.456c1.526,1.206,2.338,2.373,2.338,3.344c0,4.024-13.746,11.412-36.204,11.412
	s-36.206-7.387-36.206-11.412C356.176,103.309,356.991,102.143,358.524,100.928z M119.619,115.694
	c-22.458,0-36.206-7.387-36.206-11.412c0-0.974,0.813-2.14,2.349-3.354c9.065,4.27,21.725,6.466,33.856,6.466
	c12.117,0,24.787-2.194,33.864-6.456c1.526,1.206,2.339,2.373,2.339,3.344C155.822,108.307,142.076,115.694,119.619,115.694z
	 M119.619,88.149c-22.458,0-36.206-7.389-36.206-11.412c0-0.973,0.813-2.145,2.349-3.354c9.065,4.269,21.725,6.467,33.856,6.467
	c12.117,0,24.787-2.193,33.864-6.463c1.526,1.212,2.339,2.378,2.339,3.35C155.822,80.76,142.076,88.149,119.619,88.149z
	 M119.619,60.602c-22.458,0-36.206-7.389-36.206-11.415c0-0.971,0.813-2.139,2.349-3.351c9.065,4.271,21.725,6.466,33.856,6.466
	c12.117,0,24.787-2.191,33.864-6.459c1.526,1.211,2.339,2.376,2.339,3.344C155.822,53.213,142.076,60.602,119.619,60.602z
	 M119.619,33.056c-22.458,0-36.206-7.39-36.206-11.413c0-4.024,13.748-11.412,36.206-11.412c22.458,0,36.203,7.387,36.203,11.412
	C155.822,25.666,142.076,33.056,119.619,33.056z M57.786,304.223c-22.46,0-36.207-7.387-36.207-11.411
	c0-0.972,0.816-2.139,2.348-3.352c9.07,4.271,21.732,6.466,33.859,6.466c12.119,0,24.788-2.194,33.865-6.457
	c1.524,1.207,2.336,2.373,2.336,3.343C93.987,296.836,80.242,304.223,57.786,304.223z M57.786,276.68
	c-22.46,0-36.207-7.391-36.207-11.414c0-0.971,0.816-2.143,2.348-3.354c9.07,4.271,21.732,6.47,33.859,6.47
	c12.119,0,24.788-2.192,33.865-6.463c1.524,1.212,2.336,2.378,2.336,3.347C93.987,269.289,80.242,276.68,57.786,276.68z
	 M57.786,249.132c-22.46,0-36.207-7.389-36.207-11.412c0-0.974,0.816-2.14,2.348-3.354c9.07,4.273,21.732,6.466,33.859,6.466
	c12.119,0,24.788-2.193,33.865-6.46c1.524,1.211,2.336,2.377,2.336,3.349C93.987,241.743,80.242,249.132,57.786,249.132z
	 M57.786,221.586c-22.46,0-36.207-7.391-36.207-11.414c0-4.021,13.747-11.412,36.207-11.412c22.457,0,36.202,7.391,36.202,11.412
	C93.987,214.196,80.242,221.586,57.786,221.586z M119.619,492.755c-22.458,0-36.206-7.389-36.206-11.412
	c0-0.973,0.813-2.139,2.349-3.354c9.065,4.271,21.725,6.469,33.856,6.469c12.117,0,24.787-2.194,33.864-6.458
	c1.526,1.207,2.339,2.372,2.339,3.344C155.822,485.366,142.076,492.755,119.619,492.755z M119.619,465.212
	c-22.458,0-36.206-7.392-36.206-11.418c0-0.968,0.813-2.14,2.349-3.351c9.065,4.269,21.725,6.469,33.856,6.469
	c12.117,0,24.787-2.194,33.864-6.463c1.526,1.214,2.339,2.38,2.339,3.345C155.822,457.82,142.076,465.212,119.619,465.212z
	 M119.619,437.663c-22.458,0-36.206-7.39-36.206-11.414c0-0.972,0.813-2.141,2.349-3.354c9.065,4.274,21.725,6.469,33.856,6.469
	c12.117,0,24.787-2.193,33.864-6.46c1.526,1.211,2.339,2.377,2.339,3.346C155.822,430.273,142.076,437.663,119.619,437.663z
	 M119.619,410.115c-22.458,0-36.206-7.388-36.206-11.41c0-4.023,13.748-11.414,36.206-11.414c22.458,0,36.203,7.391,36.203,11.414
	C155.822,402.728,142.076,410.115,119.619,410.115z M392.381,387.291c22.458,0,36.204,7.391,36.204,11.414
	c0,4.022-13.746,11.41-36.204,11.41s-36.206-7.388-36.206-11.41C356.175,394.682,369.924,387.291,392.381,387.291z M358.524,422.895
	c9.069,4.274,21.73,6.469,33.856,6.469c12.119,0,24.789-2.193,33.866-6.46c1.526,1.211,2.338,2.377,2.338,3.346
	c0,4.024-13.746,11.414-36.204,11.414s-36.206-7.39-36.206-11.414C356.176,425.277,356.991,424.108,358.524,422.895z
	 M358.524,450.443c9.069,4.269,21.73,6.469,33.856,6.469c12.119,0,24.789-2.194,33.866-6.463c1.526,1.214,2.338,2.38,2.338,3.345
	c0,4.026-13.746,11.418-36.204,11.418s-36.206-7.392-36.206-11.418C356.176,452.826,356.991,451.654,358.524,450.443z
	 M358.524,477.988c9.069,4.271,21.73,6.469,33.856,6.469c12.119,0,24.789-2.194,33.866-6.458c1.526,1.207,2.338,2.372,2.338,3.344
	c0,4.023-13.746,11.412-36.204,11.412s-36.206-7.389-36.206-11.412C356.176,480.37,356.991,479.204,358.524,477.988z
	 M255.997,330.999c-34.923,0-56.305-11.49-56.305-17.746c0-1.513,1.271-3.327,3.651-5.215c14.106,6.64,33.795,10.055,52.654,10.055
	c18.848,0,38.552-3.412,52.672-10.04c2.37,1.875,3.636,3.69,3.636,5.202C312.305,319.509,290.924,330.999,255.997,330.999z
	 M255.997,288.162c-34.923,0-56.305-11.493-56.305-17.752c0-1.511,1.271-3.33,3.651-5.217c14.106,6.643,33.795,10.061,52.654,10.061
	c18.848,0,38.552-3.412,52.672-10.049c2.37,1.883,3.636,3.697,3.636,5.207C312.305,276.669,290.924,288.162,255.997,288.162z
	 M255.997,245.317c-34.923,0-56.305-11.491-56.305-17.749c0-1.511,1.271-3.328,3.651-5.213
	c14.106,6.644,33.795,10.056,52.654,10.056c18.848,0,38.552-3.409,52.672-10.044c2.37,1.882,3.636,3.696,3.636,5.203
	C312.305,233.826,290.924,245.317,255.997,245.317z M255.997,202.477c-34.923,0-56.305-11.489-56.305-17.749
	c0-6.255,21.382-17.747,56.305-17.747c34.927,0,56.308,11.491,56.308,17.747C312.305,190.988,290.924,202.477,255.997,202.477z
	 M454.214,304.223c-22.454,0-36.202-7.387-36.202-11.411c0-0.972,0.813-2.139,2.346-3.352c9.067,4.271,21.729,6.466,33.855,6.466
	c12.118,0,24.788-2.194,33.865-6.457c1.525,1.207,2.339,2.373,2.339,3.343C490.418,296.836,476.675,304.223,454.214,304.223z
	 M454.214,276.68c-22.454,0-36.202-7.391-36.202-11.414c0-0.971,0.813-2.143,2.346-3.354c9.067,4.271,21.729,6.47,33.855,6.47
	c12.118,0,24.788-2.192,33.865-6.463c1.525,1.212,2.339,2.378,2.339,3.347C490.418,269.289,476.675,276.68,454.214,276.68z
	 M454.214,249.132c-22.454,0-36.202-7.389-36.202-11.412c0-0.974,0.813-2.14,2.346-3.354c9.067,4.273,21.729,6.466,33.855,6.466
	c12.118,0,24.788-2.193,33.865-6.46c1.525,1.211,2.339,2.377,2.339,3.349C490.418,241.743,476.675,249.132,454.214,249.132z
	 M454.214,221.586c-22.454,0-36.202-7.391-36.202-11.414c0-4.021,13.746-11.412,36.202-11.412c22.461,0,36.204,7.391,36.204,11.412
	C490.418,214.196,476.675,221.586,454.214,221.586z"/>
</svg>
